<svg xmlns="http://www.w3.org/2000/svg" viewBox="0 0 512 512" width="100%" height="100%">
  <defs>
    <linearGradient id="dg-gradient" x1="0%" y1="0%" x2="100%" y2="100%">
      <stop offset="0%" stop-color="#fbbf24" />
      <stop offset="100%" stop-color="#f43f5e" />
    </linearGradient>
  </defs>
  
  <rect width="512" height="512" rx="128" fill="#0f172a" />
  
  <rect width="496" height="496" x="8" y="8" rx="120" fill="none" stroke="url(#dg-gradient)" stroke-width="12" opacity="0.8" />
  
  <g fill="url(#dg-gradient)">
    <path d="M130 160h60c50 0 90 35 90 96s-40 96-90 96h-60V160zm45 152h15c28 0 45-18 45-56s-17-56-45-56h-15v112z"/>
    <path d="M375 285h-55v-40h95v70c-15 25-45 45-85 45-55 0-95-38-95-96s40-96 98-96c42 0 72 20 85 45l-38 20c-10-15-25-25-47-25-33 0-53 22-53 56s20 56 53 56c22 0 37-10 44-25z"/>
  </g>
</svg>
